<svg xmlns="http://www.w3.org/2000/svg" width="24" height="24" viewBox="0 0 24 24">
    <path fill="#5c6673" fill-rule="evenodd" d="M10.5 3.607l-.941-.967a4.93 4.93 0 0 0-7.721 1.367C1.151 5.35 1 7.289 2.25 9.763 3.457 12.145 5.969 15 10.5 18.107c4.531-3.108 7.042-5.962 8.251-8.344 1.253-2.475 1.1-4.413.412-5.755a4.93 4.93 0 0 0-7.722-1.369zm0 16.081C-9.625 6.389 4.3-3.99 10.269 1.5c.079.072.156.147.231.224q.111-.116.231-.223C16.7-3.993 30.625 6.388 10.5 19.688z" transform="translate(2.071 2.192)"/>
    <path fill="none" d="M0 0H24V24H0z"/>
</svg>
