<svg xmlns="http://www.w3.org/2000/svg" width="24" height="24" viewBox="0 0 24 24">
    <path fill="none" d="M0 0H24V24H0z"/>
    <path fill="#5c6673" fill-rule="evenodd" d="M0 2.682A.682.682 0 0 1 .682 2h2.045a.682.682 0 0 1 .661.517l.552 2.21h15.828a.682.682 0 0 1 .661.847l-2.045 8.18a.682.682 0 0 1-.661.517H5.453a.682.682 0 0 1-.661-.517l-2.6-10.39H.682A.682.682 0 0 1 0 2.682zM4.281 6.09l1.7 6.816h11.21L18.9 6.09zM6.816 17a1.363 1.363 0 1 0 1.364 1.36A1.363 1.363 0 0 0 6.816 17zM4.09 18.36a2.727 2.727 0 1 1 2.727 2.727A2.727 2.727 0 0 1 4.09 18.36zM16.36 17a1.363 1.363 0 1 0 1.363 1.363A1.363 1.363 0 0 0 16.36 17zm-2.727 1.36a2.727 2.727 0 1 1 2.727 2.727 2.727 2.727 0 0 1-2.727-2.727z" transform="translate(2)"/>
</svg>
